<mxfile host="Electron" agent="Mozilla/5.0 (Windows NT 10.0; Win64; x64) AppleWebKit/537.36 (KHTML, like Gecko) draw.io/27.0.9 Chrome/134.0.6998.205 Electron/35.4.0 Safari/537.36" version="27.0.9" pages="2">
  <diagram name="overview" id="7gSDvFoqOo3WNd40TgP2">
    <mxGraphModel dx="849" dy="605" grid="1" gridSize="10" guides="1" tooltips="1" connect="1" arrows="1" fold="1" page="1" pageScale="1" pageWidth="3300" pageHeight="2339" math="0" shadow="0">
      <root>
        <mxCell id="0" />
        <mxCell id="1" parent="0" />
        <mxCell id="fSgN17h9TxFpWvihbvLs-7" style="rounded=0;orthogonalLoop=1;jettySize=auto;html=1;exitX=1;exitY=0.5;exitDx=0;exitDy=0;entryX=0;entryY=0.5;entryDx=0;entryDy=0;" edge="1" parent="1" source="fSgN17h9TxFpWvihbvLs-1" target="fSgN17h9TxFpWvihbvLs-2">
          <mxGeometry relative="1" as="geometry" />
        </mxCell>
        <mxCell id="fSgN17h9TxFpWvihbvLs-1" value="Optics" style="rounded=0;whiteSpace=wrap;html=1;" vertex="1" parent="1">
          <mxGeometry x="40" y="40" width="80" height="40" as="geometry" />
        </mxCell>
        <mxCell id="fSgN17h9TxFpWvihbvLs-8" style="rounded=0;orthogonalLoop=1;jettySize=auto;html=1;exitX=1;exitY=0.5;exitDx=0;exitDy=0;entryX=0;entryY=0.5;entryDx=0;entryDy=0;" edge="1" parent="1" source="fSgN17h9TxFpWvihbvLs-2" target="fSgN17h9TxFpWvihbvLs-3">
          <mxGeometry relative="1" as="geometry" />
        </mxCell>
        <mxCell id="fSgN17h9TxFpWvihbvLs-2" value="Aperture" style="rounded=0;whiteSpace=wrap;html=1;" vertex="1" parent="1">
          <mxGeometry x="140" y="40" width="80" height="40" as="geometry" />
        </mxCell>
        <mxCell id="fSgN17h9TxFpWvihbvLs-9" style="rounded=0;orthogonalLoop=1;jettySize=auto;html=1;exitX=1;exitY=0.5;exitDx=0;exitDy=0;entryX=0;entryY=0.5;entryDx=0;entryDy=0;" edge="1" parent="1" source="fSgN17h9TxFpWvihbvLs-3" target="fSgN17h9TxFpWvihbvLs-4">
          <mxGeometry relative="1" as="geometry" />
        </mxCell>
        <mxCell id="fSgN17h9TxFpWvihbvLs-3" value="Shutter" style="rounded=0;whiteSpace=wrap;html=1;" vertex="1" parent="1">
          <mxGeometry x="240" y="40" width="80" height="40" as="geometry" />
        </mxCell>
        <mxCell id="fSgN17h9TxFpWvihbvLs-10" style="edgeStyle=none;rounded=0;orthogonalLoop=1;jettySize=auto;html=1;exitX=1;exitY=0.5;exitDx=0;exitDy=0;entryX=0;entryY=0.5;entryDx=0;entryDy=0;" edge="1" parent="1" source="fSgN17h9TxFpWvihbvLs-4" target="fSgN17h9TxFpWvihbvLs-5">
          <mxGeometry relative="1" as="geometry" />
        </mxCell>
        <mxCell id="fSgN17h9TxFpWvihbvLs-4" value="Sensor" style="rounded=0;whiteSpace=wrap;html=1;" vertex="1" parent="1">
          <mxGeometry x="340" y="40" width="80" height="40" as="geometry" />
        </mxCell>
        <mxCell id="fSgN17h9TxFpWvihbvLs-5" value="A/D&amp;nbsp;&lt;div&gt;converter&lt;/div&gt;" style="rounded=0;whiteSpace=wrap;html=1;" vertex="1" parent="1">
          <mxGeometry x="440" y="40" width="80" height="40" as="geometry" />
        </mxCell>
        <mxCell id="fSgN17h9TxFpWvihbvLs-14" style="edgeStyle=none;rounded=0;orthogonalLoop=1;jettySize=auto;html=1;exitX=1;exitY=0.5;exitDx=0;exitDy=0;entryX=0.5;entryY=0;entryDx=0;entryDy=0;" edge="1" parent="1" source="fSgN17h9TxFpWvihbvLs-6" target="fSgN17h9TxFpWvihbvLs-13">
          <mxGeometry relative="1" as="geometry" />
        </mxCell>
        <mxCell id="fSgN17h9TxFpWvihbvLs-6" value="Post-processing" style="rounded=0;whiteSpace=wrap;html=1;" vertex="1" parent="1">
          <mxGeometry x="540" y="40" width="80" height="40" as="geometry" />
        </mxCell>
        <mxCell id="fSgN17h9TxFpWvihbvLs-11" style="edgeStyle=none;rounded=0;orthogonalLoop=1;jettySize=auto;html=1;exitX=1;exitY=0.5;exitDx=0;exitDy=0;entryX=0;entryY=0.5;entryDx=0;entryDy=0;" edge="1" parent="1" source="fSgN17h9TxFpWvihbvLs-5" target="fSgN17h9TxFpWvihbvLs-6">
          <mxGeometry relative="1" as="geometry" />
        </mxCell>
        <mxCell id="fSgN17h9TxFpWvihbvLs-13" value="Interface" style="rounded=0;whiteSpace=wrap;html=1;rotation=-90;" vertex="1" parent="1">
          <mxGeometry x="610" y="45" width="90" height="30" as="geometry" />
        </mxCell>
      </root>
    </mxGraphModel>
  </diagram>
  <diagram id="ZFW_kCiWIX475Z2vGPpV" name="Page-2">
    <mxGraphModel dx="1741" dy="1241" grid="1" gridSize="10" guides="1" tooltips="1" connect="1" arrows="1" fold="1" page="1" pageScale="1" pageWidth="3300" pageHeight="2339" math="0" shadow="0">
      <root>
        <mxCell id="0" />
        <mxCell id="1" parent="0" />
      </root>
    </mxGraphModel>
  </diagram>
</mxfile>
